<?xml version="1.0" encoding="utf-8" standalone="no"?>
<!DOCTYPE svg PUBLIC "-//W3C//DTD SVG 1.1//EN"
  "http://www.w3.org/Graphics/SVG/1.1/DTD/svg11.dtd">
<!-- Created with matplotlib (https://matplotlib.org/) -->
<svg height="360pt" version="1.1" viewBox="0 0 864 360" width="864pt" xmlns="http://www.w3.org/2000/svg" xmlns:xlink="http://www.w3.org/1999/xlink">
 <defs>
  <style type="text/css">
*{stroke-linecap:butt;stroke-linejoin:round;}
  </style>
 </defs>
 <g id="figure_1">
  <g id="patch_1">
   <path d="M 0 360 
L 864 360 
L 864 0 
L 0 0 
z
" style="fill:#ffffff;"/>
  </g>
  <g id="axes_1">
   <g id="patch_2">
    <path d="M 108 315 
L 438.666667 315 
L 438.666667 43.2 
L 108 43.2 
z
" style="fill:#ffffff;"/>
   </g>
   <g id="matplotlib.axis_1">
    <g id="xtick_1">
     <g id="line2d_1">
      <defs>
       <path d="M 0 0 
L 0 3.5 
" id="m35b8a67403" style="stroke:#000000;stroke-width:0.8;"/>
      </defs>
      <g>
       <use style="stroke:#000000;stroke-width:0.8;" x="123.030303" xlink:href="#m35b8a67403" y="315"/>
      </g>
     </g>
     <g id="text_1">
      <!-- 0.0 -->
      <defs>
       <path d="M 31.78125 66.40625 
Q 24.171875 66.40625 20.328125 58.90625 
Q 16.5 51.421875 16.5 36.375 
Q 16.5 21.390625 20.328125 13.890625 
Q 24.171875 6.390625 31.78125 6.390625 
Q 39.453125 6.390625 43.28125 13.890625 
Q 47.125 21.390625 47.125 36.375 
Q 47.125 51.421875 43.28125 58.90625 
Q 39.453125 66.40625 31.78125 66.40625 
z
M 31.78125 74.21875 
Q 44.046875 74.21875 50.515625 64.515625 
Q 56.984375 54.828125 56.984375 36.375 
Q 56.984375 17.96875 50.515625 8.265625 
Q 44.046875 -1.421875 31.78125 -1.421875 
Q 19.53125 -1.421875 13.0625 8.265625 
Q 6.59375 17.96875 6.59375 36.375 
Q 6.59375 54.828125 13.0625 64.515625 
Q 19.53125 74.21875 31.78125 74.21875 
z
" id="DejaVuSans-48"/>
       <path d="M 10.6875 12.40625 
L 21 12.40625 
L 21 0 
L 10.6875 0 
z
" id="DejaVuSans-46"/>
      </defs>
      <g transform="translate(115.078741 329.598437)scale(0.1 -0.1)">
       <use xlink:href="#DejaVuSans-48"/>
       <use x="63.623047" xlink:href="#DejaVuSans-46"/>
       <use x="95.410156" xlink:href="#DejaVuSans-48"/>
      </g>
     </g>
    </g>
    <g id="xtick_2">
     <g id="line2d_2">
      <g>
       <use style="stroke:#000000;stroke-width:0.8;" x="183.151515" xlink:href="#m35b8a67403" y="315"/>
      </g>
     </g>
     <g id="text_2">
      <!-- 0.2 -->
      <defs>
       <path d="M 19.1875 8.296875 
L 53.609375 8.296875 
L 53.609375 0 
L 7.328125 0 
L 7.328125 8.296875 
Q 12.9375 14.109375 22.625 23.890625 
Q 32.328125 33.6875 34.8125 36.53125 
Q 39.546875 41.84375 41.421875 45.53125 
Q 43.3125 49.21875 43.3125 52.78125 
Q 43.3125 58.59375 39.234375 62.25 
Q 35.15625 65.921875 28.609375 65.921875 
Q 23.96875 65.921875 18.8125 64.3125 
Q 13.671875 62.703125 7.8125 59.421875 
L 7.8125 69.390625 
Q 13.765625 71.78125 18.9375 73 
Q 24.125 74.21875 28.421875 74.21875 
Q 39.75 74.21875 46.484375 68.546875 
Q 53.21875 62.890625 53.21875 53.421875 
Q 53.21875 48.921875 51.53125 44.890625 
Q 49.859375 40.875 45.40625 35.40625 
Q 44.1875 33.984375 37.640625 27.21875 
Q 31.109375 20.453125 19.1875 8.296875 
z
" id="DejaVuSans-50"/>
      </defs>
      <g transform="translate(175.199953 329.598437)scale(0.1 -0.1)">
       <use xlink:href="#DejaVuSans-48"/>
       <use x="63.623047" xlink:href="#DejaVuSans-46"/>
       <use x="95.410156" xlink:href="#DejaVuSans-50"/>
      </g>
     </g>
    </g>
    <g id="xtick_3">
     <g id="line2d_3">
      <g>
       <use style="stroke:#000000;stroke-width:0.8;" x="243.272727" xlink:href="#m35b8a67403" y="315"/>
      </g>
     </g>
     <g id="text_3">
      <!-- 0.4 -->
      <defs>
       <path d="M 37.796875 64.3125 
L 12.890625 25.390625 
L 37.796875 25.390625 
z
M 35.203125 72.90625 
L 47.609375 72.90625 
L 47.609375 25.390625 
L 58.015625 25.390625 
L 58.015625 17.1875 
L 47.609375 17.1875 
L 47.609375 0 
L 37.796875 0 
L 37.796875 17.1875 
L 4.890625 17.1875 
L 4.890625 26.703125 
z
" id="DejaVuSans-52"/>
      </defs>
      <g transform="translate(235.321165 329.598437)scale(0.1 -0.1)">
       <use xlink:href="#DejaVuSans-48"/>
       <use x="63.623047" xlink:href="#DejaVuSans-46"/>
       <use x="95.410156" xlink:href="#DejaVuSans-52"/>
      </g>
     </g>
    </g>
    <g id="xtick_4">
     <g id="line2d_4">
      <g>
       <use style="stroke:#000000;stroke-width:0.8;" x="303.393939" xlink:href="#m35b8a67403" y="315"/>
      </g>
     </g>
     <g id="text_4">
      <!-- 0.6 -->
      <defs>
       <path d="M 33.015625 40.375 
Q 26.375 40.375 22.484375 35.828125 
Q 18.609375 31.296875 18.609375 23.390625 
Q 18.609375 15.53125 22.484375 10.953125 
Q 26.375 6.390625 33.015625 6.390625 
Q 39.65625 6.390625 43.53125 10.953125 
Q 47.40625 15.53125 47.40625 23.390625 
Q 47.40625 31.296875 43.53125 35.828125 
Q 39.65625 40.375 33.015625 40.375 
z
M 52.59375 71.296875 
L 52.59375 62.3125 
Q 48.875 64.0625 45.09375 64.984375 
Q 41.3125 65.921875 37.59375 65.921875 
Q 27.828125 65.921875 22.671875 59.328125 
Q 17.53125 52.734375 16.796875 39.40625 
Q 19.671875 43.65625 24.015625 45.921875 
Q 28.375 48.1875 33.59375 48.1875 
Q 44.578125 48.1875 50.953125 41.515625 
Q 57.328125 34.859375 57.328125 23.390625 
Q 57.328125 12.15625 50.6875 5.359375 
Q 44.046875 -1.421875 33.015625 -1.421875 
Q 20.359375 -1.421875 13.671875 8.265625 
Q 6.984375 17.96875 6.984375 36.375 
Q 6.984375 53.65625 15.1875 63.9375 
Q 23.390625 74.21875 37.203125 74.21875 
Q 40.921875 74.21875 44.703125 73.484375 
Q 48.484375 72.75 52.59375 71.296875 
z
" id="DejaVuSans-54"/>
      </defs>
      <g transform="translate(295.442377 329.598437)scale(0.1 -0.1)">
       <use xlink:href="#DejaVuSans-48"/>
       <use x="63.623047" xlink:href="#DejaVuSans-46"/>
       <use x="95.410156" xlink:href="#DejaVuSans-54"/>
      </g>
     </g>
    </g>
    <g id="xtick_5">
     <g id="line2d_5">
      <g>
       <use style="stroke:#000000;stroke-width:0.8;" x="363.515152" xlink:href="#m35b8a67403" y="315"/>
      </g>
     </g>
     <g id="text_5">
      <!-- 0.8 -->
      <defs>
       <path d="M 31.78125 34.625 
Q 24.75 34.625 20.71875 30.859375 
Q 16.703125 27.09375 16.703125 20.515625 
Q 16.703125 13.921875 20.71875 10.15625 
Q 24.75 6.390625 31.78125 6.390625 
Q 38.8125 6.390625 42.859375 10.171875 
Q 46.921875 13.96875 46.921875 20.515625 
Q 46.921875 27.09375 42.890625 30.859375 
Q 38.875 34.625 31.78125 34.625 
z
M 21.921875 38.8125 
Q 15.578125 40.375 12.03125 44.71875 
Q 8.5 49.078125 8.5 55.328125 
Q 8.5 64.0625 14.71875 69.140625 
Q 20.953125 74.21875 31.78125 74.21875 
Q 42.671875 74.21875 48.875 69.140625 
Q 55.078125 64.0625 55.078125 55.328125 
Q 55.078125 49.078125 51.53125 44.71875 
Q 48 40.375 41.703125 38.8125 
Q 48.828125 37.15625 52.796875 32.3125 
Q 56.78125 27.484375 56.78125 20.515625 
Q 56.78125 9.90625 50.3125 4.234375 
Q 43.84375 -1.421875 31.78125 -1.421875 
Q 19.734375 -1.421875 13.25 4.234375 
Q 6.78125 9.90625 6.78125 20.515625 
Q 6.78125 27.484375 10.78125 32.3125 
Q 14.796875 37.15625 21.921875 38.8125 
z
M 18.3125 54.390625 
Q 18.3125 48.734375 21.84375 45.5625 
Q 25.390625 42.390625 31.78125 42.390625 
Q 38.140625 42.390625 41.71875 45.5625 
Q 45.3125 48.734375 45.3125 54.390625 
Q 45.3125 60.0625 41.71875 63.234375 
Q 38.140625 66.40625 31.78125 66.40625 
Q 25.390625 66.40625 21.84375 63.234375 
Q 18.3125 60.0625 18.3125 54.390625 
z
" id="DejaVuSans-56"/>
      </defs>
      <g transform="translate(355.563589 329.598437)scale(0.1 -0.1)">
       <use xlink:href="#DejaVuSans-48"/>
       <use x="63.623047" xlink:href="#DejaVuSans-46"/>
       <use x="95.410156" xlink:href="#DejaVuSans-56"/>
      </g>
     </g>
    </g>
    <g id="xtick_6">
     <g id="line2d_6">
      <g>
       <use style="stroke:#000000;stroke-width:0.8;" x="423.636364" xlink:href="#m35b8a67403" y="315"/>
      </g>
     </g>
     <g id="text_6">
      <!-- 1.0 -->
      <defs>
       <path d="M 12.40625 8.296875 
L 28.515625 8.296875 
L 28.515625 63.921875 
L 10.984375 60.40625 
L 10.984375 69.390625 
L 28.421875 72.90625 
L 38.28125 72.90625 
L 38.28125 8.296875 
L 54.390625 8.296875 
L 54.390625 0 
L 12.40625 0 
z
" id="DejaVuSans-49"/>
      </defs>
      <g transform="translate(415.684801 329.598437)scale(0.1 -0.1)">
       <use xlink:href="#DejaVuSans-49"/>
       <use x="63.623047" xlink:href="#DejaVuSans-46"/>
       <use x="95.410156" xlink:href="#DejaVuSans-48"/>
      </g>
     </g>
    </g>
    <g id="text_7">
     <!-- Density of fibers -->
     <defs>
      <path d="M 19.671875 64.796875 
L 19.671875 8.109375 
L 31.59375 8.109375 
Q 46.6875 8.109375 53.6875 14.9375 
Q 60.6875 21.78125 60.6875 36.53125 
Q 60.6875 51.171875 53.6875 57.984375 
Q 46.6875 64.796875 31.59375 64.796875 
z
M 9.8125 72.90625 
L 30.078125 72.90625 
Q 51.265625 72.90625 61.171875 64.09375 
Q 71.09375 55.28125 71.09375 36.53125 
Q 71.09375 17.671875 61.125 8.828125 
Q 51.171875 0 30.078125 0 
L 9.8125 0 
z
" id="DejaVuSans-68"/>
      <path d="M 56.203125 29.59375 
L 56.203125 25.203125 
L 14.890625 25.203125 
Q 15.484375 15.921875 20.484375 11.0625 
Q 25.484375 6.203125 34.421875 6.203125 
Q 39.59375 6.203125 44.453125 7.46875 
Q 49.3125 8.734375 54.109375 11.28125 
L 54.109375 2.78125 
Q 49.265625 0.734375 44.1875 -0.34375 
Q 39.109375 -1.421875 33.890625 -1.421875 
Q 20.796875 -1.421875 13.15625 6.1875 
Q 5.515625 13.8125 5.515625 26.8125 
Q 5.515625 40.234375 12.765625 48.109375 
Q 20.015625 56 32.328125 56 
Q 43.359375 56 49.78125 48.890625 
Q 56.203125 41.796875 56.203125 29.59375 
z
M 47.21875 32.234375 
Q 47.125 39.59375 43.09375 43.984375 
Q 39.0625 48.390625 32.421875 48.390625 
Q 24.90625 48.390625 20.390625 44.140625 
Q 15.875 39.890625 15.1875 32.171875 
z
" id="DejaVuSans-101"/>
      <path d="M 54.890625 33.015625 
L 54.890625 0 
L 45.90625 0 
L 45.90625 32.71875 
Q 45.90625 40.484375 42.875 44.328125 
Q 39.84375 48.1875 33.796875 48.1875 
Q 26.515625 48.1875 22.3125 43.546875 
Q 18.109375 38.921875 18.109375 30.90625 
L 18.109375 0 
L 9.078125 0 
L 9.078125 54.6875 
L 18.109375 54.6875 
L 18.109375 46.1875 
Q 21.34375 51.125 25.703125 53.5625 
Q 30.078125 56 35.796875 56 
Q 45.21875 56 50.046875 50.171875 
Q 54.890625 44.34375 54.890625 33.015625 
z
" id="DejaVuSans-110"/>
      <path d="M 44.28125 53.078125 
L 44.28125 44.578125 
Q 40.484375 46.53125 36.375 47.5 
Q 32.28125 48.484375 27.875 48.484375 
Q 21.1875 48.484375 17.84375 46.4375 
Q 14.5 44.390625 14.5 40.28125 
Q 14.5 37.15625 16.890625 35.375 
Q 19.28125 33.59375 26.515625 31.984375 
L 29.59375 31.296875 
Q 39.15625 29.25 43.1875 25.515625 
Q 47.21875 21.78125 47.21875 15.09375 
Q 47.21875 7.46875 41.1875 3.015625 
Q 35.15625 -1.421875 24.609375 -1.421875 
Q 20.21875 -1.421875 15.453125 -0.5625 
Q 10.6875 0.296875 5.421875 2 
L 5.421875 11.28125 
Q 10.40625 8.6875 15.234375 7.390625 
Q 20.0625 6.109375 24.8125 6.109375 
Q 31.15625 6.109375 34.5625 8.28125 
Q 37.984375 10.453125 37.984375 14.40625 
Q 37.984375 18.0625 35.515625 20.015625 
Q 33.0625 21.96875 24.703125 23.78125 
L 21.578125 24.515625 
Q 13.234375 26.265625 9.515625 29.90625 
Q 5.8125 33.546875 5.8125 39.890625 
Q 5.8125 47.609375 11.28125 51.796875 
Q 16.75 56 26.8125 56 
Q 31.78125 56 36.171875 55.265625 
Q 40.578125 54.546875 44.28125 53.078125 
z
" id="DejaVuSans-115"/>
      <path d="M 9.421875 54.6875 
L 18.40625 54.6875 
L 18.40625 0 
L 9.421875 0 
z
M 9.421875 75.984375 
L 18.40625 75.984375 
L 18.40625 64.59375 
L 9.421875 64.59375 
z
" id="DejaVuSans-105"/>
      <path d="M 18.3125 70.21875 
L 18.3125 54.6875 
L 36.8125 54.6875 
L 36.8125 47.703125 
L 18.3125 47.703125 
L 18.3125 18.015625 
Q 18.3125 11.328125 20.140625 9.421875 
Q 21.96875 7.515625 27.59375 7.515625 
L 36.8125 7.515625 
L 36.8125 0 
L 27.59375 0 
Q 17.1875 0 13.234375 3.875 
Q 9.28125 7.765625 9.28125 18.015625 
L 9.28125 47.703125 
L 2.6875 47.703125 
L 2.6875 54.6875 
L 9.28125 54.6875 
L 9.28125 70.21875 
z
" id="DejaVuSans-116"/>
      <path d="M 32.171875 -5.078125 
Q 28.375 -14.84375 24.75 -17.8125 
Q 21.140625 -20.796875 15.09375 -20.796875 
L 7.90625 -20.796875 
L 7.90625 -13.28125 
L 13.1875 -13.28125 
Q 16.890625 -13.28125 18.9375 -11.515625 
Q 21 -9.765625 23.484375 -3.21875 
L 25.09375 0.875 
L 2.984375 54.6875 
L 12.5 54.6875 
L 29.59375 11.921875 
L 46.6875 54.6875 
L 56.203125 54.6875 
z
" id="DejaVuSans-121"/>
      <path id="DejaVuSans-32"/>
      <path d="M 30.609375 48.390625 
Q 23.390625 48.390625 19.1875 42.75 
Q 14.984375 37.109375 14.984375 27.296875 
Q 14.984375 17.484375 19.15625 11.84375 
Q 23.34375 6.203125 30.609375 6.203125 
Q 37.796875 6.203125 41.984375 11.859375 
Q 46.1875 17.53125 46.1875 27.296875 
Q 46.1875 37.015625 41.984375 42.703125 
Q 37.796875 48.390625 30.609375 48.390625 
z
M 30.609375 56 
Q 42.328125 56 49.015625 48.375 
Q 55.71875 40.765625 55.71875 27.296875 
Q 55.71875 13.875 49.015625 6.21875 
Q 42.328125 -1.421875 30.609375 -1.421875 
Q 18.84375 -1.421875 12.171875 6.21875 
Q 5.515625 13.875 5.515625 27.296875 
Q 5.515625 40.765625 12.171875 48.375 
Q 18.84375 56 30.609375 56 
z
" id="DejaVuSans-111"/>
      <path d="M 37.109375 75.984375 
L 37.109375 68.5 
L 28.515625 68.5 
Q 23.6875 68.5 21.796875 66.546875 
Q 19.921875 64.59375 19.921875 59.515625 
L 19.921875 54.6875 
L 34.71875 54.6875 
L 34.71875 47.703125 
L 19.921875 47.703125 
L 19.921875 0 
L 10.890625 0 
L 10.890625 47.703125 
L 2.296875 47.703125 
L 2.296875 54.6875 
L 10.890625 54.6875 
L 10.890625 58.5 
Q 10.890625 67.625 15.140625 71.796875 
Q 19.390625 75.984375 28.609375 75.984375 
z
" id="DejaVuSans-102"/>
      <path d="M 48.6875 27.296875 
Q 48.6875 37.203125 44.609375 42.84375 
Q 40.53125 48.484375 33.40625 48.484375 
Q 26.265625 48.484375 22.1875 42.84375 
Q 18.109375 37.203125 18.109375 27.296875 
Q 18.109375 17.390625 22.1875 11.75 
Q 26.265625 6.109375 33.40625 6.109375 
Q 40.53125 6.109375 44.609375 11.75 
Q 48.6875 17.390625 48.6875 27.296875 
z
M 18.109375 46.390625 
Q 20.953125 51.265625 25.265625 53.625 
Q 29.59375 56 35.59375 56 
Q 45.5625 56 51.78125 48.09375 
Q 58.015625 40.1875 58.015625 27.296875 
Q 58.015625 14.40625 51.78125 6.484375 
Q 45.5625 -1.421875 35.59375 -1.421875 
Q 29.59375 -1.421875 25.265625 0.953125 
Q 20.953125 3.328125 18.109375 8.203125 
L 18.109375 0 
L 9.078125 0 
L 9.078125 75.984375 
L 18.109375 75.984375 
z
" id="DejaVuSans-98"/>
      <path d="M 41.109375 46.296875 
Q 39.59375 47.171875 37.8125 47.578125 
Q 36.03125 48 33.890625 48 
Q 26.265625 48 22.1875 43.046875 
Q 18.109375 38.09375 18.109375 28.8125 
L 18.109375 0 
L 9.078125 0 
L 9.078125 54.6875 
L 18.109375 54.6875 
L 18.109375 46.1875 
Q 20.953125 51.171875 25.484375 53.578125 
Q 30.03125 56 36.53125 56 
Q 37.453125 56 38.578125 55.875 
Q 39.703125 55.765625 41.0625 55.515625 
z
" id="DejaVuSans-114"/>
     </defs>
     <g transform="translate(232.266927 343.276563)scale(0.1 -0.1)">
      <use xlink:href="#DejaVuSans-68"/>
      <use x="77.001953" xlink:href="#DejaVuSans-101"/>
      <use x="138.525391" xlink:href="#DejaVuSans-110"/>
      <use x="201.904297" xlink:href="#DejaVuSans-115"/>
      <use x="254.003906" xlink:href="#DejaVuSans-105"/>
      <use x="281.787109" xlink:href="#DejaVuSans-116"/>
      <use x="320.996094" xlink:href="#DejaVuSans-121"/>
      <use x="380.175781" xlink:href="#DejaVuSans-32"/>
      <use x="411.962891" xlink:href="#DejaVuSans-111"/>
      <use x="473.144531" xlink:href="#DejaVuSans-102"/>
      <use x="508.349609" xlink:href="#DejaVuSans-32"/>
      <use x="540.136719" xlink:href="#DejaVuSans-102"/>
      <use x="575.341797" xlink:href="#DejaVuSans-105"/>
      <use x="603.125" xlink:href="#DejaVuSans-98"/>
      <use x="666.601562" xlink:href="#DejaVuSans-101"/>
      <use x="728.125" xlink:href="#DejaVuSans-114"/>
      <use x="769.238281" xlink:href="#DejaVuSans-115"/>
     </g>
    </g>
   </g>
   <g id="matplotlib.axis_2">
    <g id="ytick_1">
     <g id="line2d_7">
      <defs>
       <path d="M 0 0 
L -3.5 0 
" id="m0ef1cbce6e" style="stroke:#000000;stroke-width:0.8;"/>
      </defs>
      <g>
       <use style="stroke:#000000;stroke-width:0.8;" x="108" xlink:href="#m0ef1cbce6e" y="302.645455"/>
      </g>
     </g>
     <g id="text_8">
      <!-- 0.0 -->
      <g transform="translate(85.096875 306.444673)scale(0.1 -0.1)">
       <use xlink:href="#DejaVuSans-48"/>
       <use x="63.623047" xlink:href="#DejaVuSans-46"/>
       <use x="95.410156" xlink:href="#DejaVuSans-48"/>
      </g>
     </g>
    </g>
    <g id="ytick_2">
     <g id="line2d_8">
      <g>
       <use style="stroke:#000000;stroke-width:0.8;" x="108" xlink:href="#m0ef1cbce6e" y="253.227273"/>
      </g>
     </g>
     <g id="text_9">
      <!-- 0.2 -->
      <g transform="translate(85.096875 257.026491)scale(0.1 -0.1)">
       <use xlink:href="#DejaVuSans-48"/>
       <use x="63.623047" xlink:href="#DejaVuSans-46"/>
       <use x="95.410156" xlink:href="#DejaVuSans-50"/>
      </g>
     </g>
    </g>
    <g id="ytick_3">
     <g id="line2d_9">
      <g>
       <use style="stroke:#000000;stroke-width:0.8;" x="108" xlink:href="#m0ef1cbce6e" y="203.809091"/>
      </g>
     </g>
     <g id="text_10">
      <!-- 0.4 -->
      <g transform="translate(85.096875 207.60831)scale(0.1 -0.1)">
       <use xlink:href="#DejaVuSans-48"/>
       <use x="63.623047" xlink:href="#DejaVuSans-46"/>
       <use x="95.410156" xlink:href="#DejaVuSans-52"/>
      </g>
     </g>
    </g>
    <g id="ytick_4">
     <g id="line2d_10">
      <g>
       <use style="stroke:#000000;stroke-width:0.8;" x="108" xlink:href="#m0ef1cbce6e" y="154.390909"/>
      </g>
     </g>
     <g id="text_11">
      <!-- 0.6 -->
      <g transform="translate(85.096875 158.190128)scale(0.1 -0.1)">
       <use xlink:href="#DejaVuSans-48"/>
       <use x="63.623047" xlink:href="#DejaVuSans-46"/>
       <use x="95.410156" xlink:href="#DejaVuSans-54"/>
      </g>
     </g>
    </g>
    <g id="ytick_5">
     <g id="line2d_11">
      <g>
       <use style="stroke:#000000;stroke-width:0.8;" x="108" xlink:href="#m0ef1cbce6e" y="104.972727"/>
      </g>
     </g>
     <g id="text_12">
      <!-- 0.8 -->
      <g transform="translate(85.096875 108.771946)scale(0.1 -0.1)">
       <use xlink:href="#DejaVuSans-48"/>
       <use x="63.623047" xlink:href="#DejaVuSans-46"/>
       <use x="95.410156" xlink:href="#DejaVuSans-56"/>
      </g>
     </g>
    </g>
    <g id="ytick_6">
     <g id="line2d_12">
      <g>
       <use style="stroke:#000000;stroke-width:0.8;" x="108" xlink:href="#m0ef1cbce6e" y="55.554545"/>
      </g>
     </g>
     <g id="text_13">
      <!-- 1.0 -->
      <g transform="translate(85.096875 59.353764)scale(0.1 -0.1)">
       <use xlink:href="#DejaVuSans-49"/>
       <use x="63.623047" xlink:href="#DejaVuSans-46"/>
       <use x="95.410156" xlink:href="#DejaVuSans-48"/>
      </g>
     </g>
    </g>
    <g id="text_14">
     <!-- Probability of conduction -->
     <defs>
      <path d="M 19.671875 64.796875 
L 19.671875 37.40625 
L 32.078125 37.40625 
Q 38.96875 37.40625 42.71875 40.96875 
Q 46.484375 44.53125 46.484375 51.125 
Q 46.484375 57.671875 42.71875 61.234375 
Q 38.96875 64.796875 32.078125 64.796875 
z
M 9.8125 72.90625 
L 32.078125 72.90625 
Q 44.34375 72.90625 50.609375 67.359375 
Q 56.890625 61.8125 56.890625 51.125 
Q 56.890625 40.328125 50.609375 34.8125 
Q 44.34375 29.296875 32.078125 29.296875 
L 19.671875 29.296875 
L 19.671875 0 
L 9.8125 0 
z
" id="DejaVuSans-80"/>
      <path d="M 34.28125 27.484375 
Q 23.390625 27.484375 19.1875 25 
Q 14.984375 22.515625 14.984375 16.5 
Q 14.984375 11.71875 18.140625 8.90625 
Q 21.296875 6.109375 26.703125 6.109375 
Q 34.1875 6.109375 38.703125 11.40625 
Q 43.21875 16.703125 43.21875 25.484375 
L 43.21875 27.484375 
z
M 52.203125 31.203125 
L 52.203125 0 
L 43.21875 0 
L 43.21875 8.296875 
Q 40.140625 3.328125 35.546875 0.953125 
Q 30.953125 -1.421875 24.3125 -1.421875 
Q 15.921875 -1.421875 10.953125 3.296875 
Q 6 8.015625 6 15.921875 
Q 6 25.140625 12.171875 29.828125 
Q 18.359375 34.515625 30.609375 34.515625 
L 43.21875 34.515625 
L 43.21875 35.40625 
Q 43.21875 41.609375 39.140625 45 
Q 35.0625 48.390625 27.6875 48.390625 
Q 23 48.390625 18.546875 47.265625 
Q 14.109375 46.140625 10.015625 43.890625 
L 10.015625 52.203125 
Q 14.9375 54.109375 19.578125 55.046875 
Q 24.21875 56 28.609375 56 
Q 40.484375 56 46.34375 49.84375 
Q 52.203125 43.703125 52.203125 31.203125 
z
" id="DejaVuSans-97"/>
      <path d="M 9.421875 75.984375 
L 18.40625 75.984375 
L 18.40625 0 
L 9.421875 0 
z
" id="DejaVuSans-108"/>
      <path d="M 48.78125 52.59375 
L 48.78125 44.1875 
Q 44.96875 46.296875 41.140625 47.34375 
Q 37.3125 48.390625 33.40625 48.390625 
Q 24.65625 48.390625 19.8125 42.84375 
Q 14.984375 37.3125 14.984375 27.296875 
Q 14.984375 17.28125 19.8125 11.734375 
Q 24.65625 6.203125 33.40625 6.203125 
Q 37.3125 6.203125 41.140625 7.25 
Q 44.96875 8.296875 48.78125 10.40625 
L 48.78125 2.09375 
Q 45.015625 0.34375 40.984375 -0.53125 
Q 36.96875 -1.421875 32.421875 -1.421875 
Q 20.0625 -1.421875 12.78125 6.34375 
Q 5.515625 14.109375 5.515625 27.296875 
Q 5.515625 40.671875 12.859375 48.328125 
Q 20.21875 56 33.015625 56 
Q 37.15625 56 41.109375 55.140625 
Q 45.0625 54.296875 48.78125 52.59375 
z
" id="DejaVuSans-99"/>
      <path d="M 45.40625 46.390625 
L 45.40625 75.984375 
L 54.390625 75.984375 
L 54.390625 0 
L 45.40625 0 
L 45.40625 8.203125 
Q 42.578125 3.328125 38.25 0.953125 
Q 33.9375 -1.421875 27.875 -1.421875 
Q 17.96875 -1.421875 11.734375 6.484375 
Q 5.515625 14.40625 5.515625 27.296875 
Q 5.515625 40.1875 11.734375 48.09375 
Q 17.96875 56 27.875 56 
Q 33.9375 56 38.25 53.625 
Q 42.578125 51.265625 45.40625 46.390625 
z
M 14.796875 27.296875 
Q 14.796875 17.390625 18.875 11.75 
Q 22.953125 6.109375 30.078125 6.109375 
Q 37.203125 6.109375 41.296875 11.75 
Q 45.40625 17.390625 45.40625 27.296875 
Q 45.40625 37.203125 41.296875 42.84375 
Q 37.203125 48.484375 30.078125 48.484375 
Q 22.953125 48.484375 18.875 42.84375 
Q 14.796875 37.203125 14.796875 27.296875 
z
" id="DejaVuSans-100"/>
      <path d="M 8.5 21.578125 
L 8.5 54.6875 
L 17.484375 54.6875 
L 17.484375 21.921875 
Q 17.484375 14.15625 20.5 10.265625 
Q 23.53125 6.390625 29.59375 6.390625 
Q 36.859375 6.390625 41.078125 11.03125 
Q 45.3125 15.671875 45.3125 23.6875 
L 45.3125 54.6875 
L 54.296875 54.6875 
L 54.296875 0 
L 45.3125 0 
L 45.3125 8.40625 
Q 42.046875 3.421875 37.71875 1 
Q 33.40625 -1.421875 27.6875 -1.421875 
Q 18.265625 -1.421875 13.375 4.4375 
Q 8.5 10.296875 8.5 21.578125 
z
M 31.109375 56 
z
" id="DejaVuSans-117"/>
     </defs>
     <g transform="translate(79.017187 241.371094)rotate(-90)scale(0.1 -0.1)">
      <use xlink:href="#DejaVuSans-80"/>
      <use x="60.287109" xlink:href="#DejaVuSans-114"/>
      <use x="101.369141" xlink:href="#DejaVuSans-111"/>
      <use x="162.550781" xlink:href="#DejaVuSans-98"/>
      <use x="226.027344" xlink:href="#DejaVuSans-97"/>
      <use x="287.306641" xlink:href="#DejaVuSans-98"/>
      <use x="350.783203" xlink:href="#DejaVuSans-105"/>
      <use x="378.566406" xlink:href="#DejaVuSans-108"/>
      <use x="406.349609" xlink:href="#DejaVuSans-105"/>
      <use x="434.132812" xlink:href="#DejaVuSans-116"/>
      <use x="473.341797" xlink:href="#DejaVuSans-121"/>
      <use x="532.521484" xlink:href="#DejaVuSans-32"/>
      <use x="564.308594" xlink:href="#DejaVuSans-111"/>
      <use x="625.490234" xlink:href="#DejaVuSans-102"/>
      <use x="660.695312" xlink:href="#DejaVuSans-32"/>
      <use x="692.482422" xlink:href="#DejaVuSans-99"/>
      <use x="747.462891" xlink:href="#DejaVuSans-111"/>
      <use x="808.644531" xlink:href="#DejaVuSans-110"/>
      <use x="872.023438" xlink:href="#DejaVuSans-100"/>
      <use x="935.5" xlink:href="#DejaVuSans-117"/>
      <use x="998.878906" xlink:href="#DejaVuSans-99"/>
      <use x="1053.859375" xlink:href="#DejaVuSans-116"/>
      <use x="1093.068359" xlink:href="#DejaVuSans-105"/>
      <use x="1120.851562" xlink:href="#DejaVuSans-111"/>
      <use x="1182.033203" xlink:href="#DejaVuSans-110"/>
     </g>
    </g>
   </g>
   <g id="line2d_13">
    <path clip-path="url(#p43dbb1a6ee)" d="M 123.030303 302.645455 
L 129.042424 302.645455 
L 135.054545 302.645455 
L 141.066667 302.645455 
L 147.078788 301.311164 
L 153.090909 300.520473 
L 159.10303 274.761245 
L 165.115152 280.382564 
L 171.127273 277.059191 
L 177.139394 255.253418 
L 183.151515 239.773173 
L 189.163636 153.489027 
L 195.175758 137.452827 
L 201.187879 109.791 
L 207.2 94.360173 
L 213.212121 86.860964 
L 219.224242 79.732391 
L 225.236364 55.554545 
L 231.248485 59.384455 
L 237.260606 57.135927 
L 243.272727 63.708545 
L 249.284848 55.554545 
L 255.29697 55.554545 
L 261.309091 55.554545 
L 267.321212 55.554545 
L 273.333333 55.554545 
L 279.345455 55.554545 
L 285.357576 55.554545 
L 291.369697 55.554545 
L 297.381818 55.554545 
L 303.393939 55.554545 
L 309.406061 55.554545 
L 315.418182 55.554545 
L 321.430303 55.554545 
L 327.442424 55.554545 
L 333.454545 55.554545 
L 339.466667 55.554545 
L 345.478788 55.554545 
L 351.490909 55.554545 
L 357.50303 55.554545 
L 363.515152 55.554545 
L 369.527273 55.554545 
L 375.539394 55.554545 
L 381.551515 55.554545 
L 387.563636 55.554545 
L 393.575758 55.554545 
L 399.587879 55.554545 
L 405.6 55.554545 
L 411.612121 55.554545 
L 417.624242 55.554545 
L 423.636364 55.554545 
" style="fill:none;stroke:#1f77b4;stroke-linecap:square;stroke-width:1.5;"/>
   </g>
   <g id="line2d_14">
    <path clip-path="url(#p43dbb1a6ee)" d="M 123.030303 302.645455 
L 129.042424 302.645455 
L 135.054545 302.645455 
L 141.066667 302.645455 
L 147.078788 302.645455 
L 153.090909 302.645455 
L 159.10303 302.645455 
L 165.115152 302.645455 
L 171.127273 302.645455 
L 177.139394 282.458127 
L 183.151515 206.588864 
L 189.163636 132.449236 
L 195.175758 68.156182 
L 201.187879 55.554545 
L 207.2 55.554545 
L 213.212121 55.554545 
L 219.224242 55.554545 
L 225.236364 55.554545 
L 231.248485 55.554545 
L 237.260606 55.554545 
L 243.272727 55.554545 
L 249.284848 55.554545 
L 255.29697 55.554545 
L 261.309091 55.554545 
L 267.321212 55.554545 
L 273.333333 55.554545 
L 279.345455 55.554545 
L 285.357576 55.554545 
L 291.369697 55.554545 
L 297.381818 55.554545 
L 303.393939 55.554545 
L 309.406061 55.554545 
L 315.418182 55.554545 
L 321.430303 55.554545 
L 327.442424 55.554545 
L 333.454545 55.554545 
L 339.466667 55.554545 
L 345.478788 55.554545 
L 351.490909 55.554545 
L 357.50303 55.554545 
L 363.515152 55.554545 
L 369.527273 55.554545 
L 375.539394 55.554545 
L 381.551515 55.554545 
L 387.563636 55.554545 
L 393.575758 55.554545 
L 399.587879 55.554545 
L 405.6 55.554545 
L 411.612121 55.554545 
L 417.624242 55.554545 
L 423.636364 55.554545 
" style="fill:none;stroke:#ff7f0e;stroke-linecap:square;stroke-width:1.5;"/>
   </g>
   <g id="line2d_15">
    <path clip-path="url(#p43dbb1a6ee)" d="M 123.030303 302.645455 
L 129.042424 302.645455 
L 135.054545 302.645455 
L 141.066667 302.645455 
L 147.078788 302.645455 
L 153.090909 302.645455 
L 159.10303 302.645455 
L 165.115152 302.645455 
L 171.127273 302.645455 
L 177.139394 302.645455 
L 183.151515 251.052873 
L 189.163636 97.275845 
L 195.175758 55.554545 
L 201.187879 55.554545 
L 207.2 55.554545 
L 213.212121 55.554545 
L 219.224242 55.554545 
L 225.236364 55.554545 
L 231.248485 55.554545 
L 237.260606 55.554545 
L 243.272727 55.554545 
L 249.284848 55.554545 
L 255.29697 55.554545 
L 261.309091 55.554545 
L 267.321212 55.554545 
L 273.333333 55.554545 
L 279.345455 55.554545 
L 285.357576 55.554545 
L 291.369697 55.554545 
L 297.381818 55.554545 
L 303.393939 55.554545 
L 309.406061 55.554545 
L 315.418182 55.554545 
L 321.430303 55.554545 
L 327.442424 55.554545 
L 333.454545 55.554545 
L 339.466667 55.554545 
L 345.478788 55.554545 
L 351.490909 55.554545 
L 357.50303 55.554545 
L 363.515152 55.554545 
L 369.527273 55.554545 
L 375.539394 55.554545 
L 381.551515 55.554545 
L 387.563636 55.554545 
L 393.575758 55.554545 
L 399.587879 55.554545 
L 405.6 55.554545 
L 411.612121 55.554545 
L 417.624242 55.554545 
L 423.636364 55.554545 
" style="fill:none;stroke:#2ca02c;stroke-linecap:square;stroke-width:1.5;"/>
   </g>
   <g id="line2d_16">
    <path clip-path="url(#p43dbb1a6ee)" d="M 123.030303 302.645455 
L 129.042424 302.645455 
L 135.054545 302.645455 
L 141.066667 302.645455 
L 147.078788 302.645455 
L 153.090909 302.645455 
L 159.10303 302.645455 
L 165.115152 302.645455 
L 171.127273 302.645455 
L 177.139394 302.645455 
L 183.151515 277.120964 
L 189.163636 92.556409 
L 195.175758 55.554545 
L 201.187879 55.554545 
L 207.2 55.554545 
L 213.212121 55.554545 
L 219.224242 55.554545 
L 225.236364 55.554545 
L 231.248485 55.554545 
L 237.260606 55.554545 
L 243.272727 55.554545 
L 249.284848 55.554545 
L 255.29697 55.554545 
L 261.309091 55.554545 
L 267.321212 55.554545 
L 273.333333 55.554545 
L 279.345455 55.554545 
L 285.357576 55.554545 
L 291.369697 55.554545 
L 297.381818 55.554545 
L 303.393939 55.554545 
L 309.406061 55.554545 
L 315.418182 55.554545 
L 321.430303 55.554545 
L 327.442424 55.554545 
L 333.454545 55.554545 
L 339.466667 55.554545 
L 345.478788 55.554545 
L 351.490909 55.554545 
L 357.50303 55.554545 
L 363.515152 55.554545 
L 369.527273 55.554545 
L 375.539394 55.554545 
L 381.551515 55.554545 
L 387.563636 55.554545 
L 393.575758 55.554545 
L 399.587879 55.554545 
L 405.6 55.554545 
L 411.612121 55.554545 
L 417.624242 55.554545 
L 423.636364 55.554545 
" style="fill:none;stroke:#d62728;stroke-linecap:square;stroke-width:1.5;"/>
   </g>
   <g id="line2d_17">
    <path clip-path="url(#p43dbb1a6ee)" d="M 123.030303 302.645455 
L 129.042424 302.645455 
L 135.054545 302.645455 
L 141.066667 302.645455 
L 147.078788 302.645455 
L 153.090909 302.645455 
L 159.10303 302.645455 
L 165.115152 302.645455 
L 171.127273 302.645455 
L 177.139394 302.645455 
L 183.151515 290.155009 
L 189.163636 57.568336 
L 195.175758 55.554545 
L 201.187879 55.554545 
L 207.2 55.554545 
L 213.212121 55.554545 
L 219.224242 55.554545 
L 225.236364 55.554545 
L 231.248485 55.554545 
L 237.260606 55.554545 
L 243.272727 55.554545 
L 249.284848 55.554545 
L 255.29697 55.554545 
L 261.309091 55.554545 
L 267.321212 55.554545 
L 273.333333 55.554545 
L 279.345455 55.554545 
L 285.357576 55.554545 
L 291.369697 55.554545 
L 297.381818 55.554545 
L 303.393939 55.554545 
L 309.406061 55.554545 
L 315.418182 55.554545 
L 321.430303 55.554545 
L 327.442424 55.554545 
L 333.454545 55.554545 
L 339.466667 55.554545 
L 345.478788 55.554545 
L 351.490909 55.554545 
L 357.50303 55.554545 
L 363.515152 55.554545 
L 369.527273 55.554545 
L 375.539394 55.554545 
L 381.551515 55.554545 
L 387.563636 55.554545 
L 393.575758 55.554545 
L 399.587879 55.554545 
L 405.6 55.554545 
L 411.612121 55.554545 
L 417.624242 55.554545 
L 423.636364 55.554545 
" style="fill:none;stroke:#9467bd;stroke-linecap:square;stroke-width:1.5;"/>
   </g>
   <g id="patch_3">
    <path d="M 108 315 
L 108 43.2 
" style="fill:none;stroke:#000000;stroke-linecap:square;stroke-linejoin:miter;stroke-width:0.8;"/>
   </g>
   <g id="patch_4">
    <path d="M 438.666667 315 
L 438.666667 43.2 
" style="fill:none;stroke:#000000;stroke-linecap:square;stroke-linejoin:miter;stroke-width:0.8;"/>
   </g>
   <g id="patch_5">
    <path d="M 108 315 
L 438.666667 315 
" style="fill:none;stroke:#000000;stroke-linecap:square;stroke-linejoin:miter;stroke-width:0.8;"/>
   </g>
   <g id="patch_6">
    <path d="M 108 43.2 
L 438.666667 43.2 
" style="fill:none;stroke:#000000;stroke-linecap:square;stroke-linejoin:miter;stroke-width:0.8;"/>
   </g>
   <g id="legend_1">
    <g id="patch_7">
     <path d="M 358.361979 310 
L 431.666667 310 
Q 433.666667 310 433.666667 308 
L 433.666667 235.609375 
Q 433.666667 233.609375 431.666667 233.609375 
L 358.361979 233.609375 
Q 356.361979 233.609375 356.361979 235.609375 
L 356.361979 308 
Q 356.361979 310 358.361979 310 
z
" style="fill:#ffffff;opacity:0.8;stroke:#cccccc;stroke-linejoin:miter;"/>
    </g>
    <g id="line2d_18">
     <path d="M 360.361979 241.707812 
L 380.361979 241.707812 
" style="fill:none;stroke:#1f77b4;stroke-linecap:square;stroke-width:1.5;"/>
    </g>
    <g id="line2d_19"/>
    <g id="text_15">
     <!-- N = 10 -->
     <defs>
      <path d="M 9.8125 72.90625 
L 23.09375 72.90625 
L 55.421875 11.921875 
L 55.421875 72.90625 
L 64.984375 72.90625 
L 64.984375 0 
L 51.703125 0 
L 19.390625 60.984375 
L 19.390625 0 
L 9.8125 0 
z
" id="DejaVuSans-78"/>
      <path d="M 10.59375 45.40625 
L 73.1875 45.40625 
L 73.1875 37.203125 
L 10.59375 37.203125 
z
M 10.59375 25.484375 
L 73.1875 25.484375 
L 73.1875 17.1875 
L 10.59375 17.1875 
z
" id="DejaVuSans-61"/>
     </defs>
     <g transform="translate(388.361979 245.207812)scale(0.1 -0.1)">
      <use xlink:href="#DejaVuSans-78"/>
      <use x="74.804688" xlink:href="#DejaVuSans-32"/>
      <use x="106.591797" xlink:href="#DejaVuSans-61"/>
      <use x="190.380859" xlink:href="#DejaVuSans-32"/>
      <use x="222.167969" xlink:href="#DejaVuSans-49"/>
      <use x="285.791016" xlink:href="#DejaVuSans-48"/>
     </g>
    </g>
    <g id="line2d_20">
     <path d="M 360.361979 256.385938 
L 380.361979 256.385938 
" style="fill:none;stroke:#ff7f0e;stroke-linecap:square;stroke-width:1.5;"/>
    </g>
    <g id="line2d_21"/>
    <g id="text_16">
     <!-- N = 50 -->
     <defs>
      <path d="M 10.796875 72.90625 
L 49.515625 72.90625 
L 49.515625 64.59375 
L 19.828125 64.59375 
L 19.828125 46.734375 
Q 21.96875 47.46875 24.109375 47.828125 
Q 26.265625 48.1875 28.421875 48.1875 
Q 40.625 48.1875 47.75 41.5 
Q 54.890625 34.8125 54.890625 23.390625 
Q 54.890625 11.625 47.5625 5.09375 
Q 40.234375 -1.421875 26.90625 -1.421875 
Q 22.3125 -1.421875 17.546875 -0.640625 
Q 12.796875 0.140625 7.71875 1.703125 
L 7.71875 11.625 
Q 12.109375 9.234375 16.796875 8.0625 
Q 21.484375 6.890625 26.703125 6.890625 
Q 35.15625 6.890625 40.078125 11.328125 
Q 45.015625 15.765625 45.015625 23.390625 
Q 45.015625 31 40.078125 35.4375 
Q 35.15625 39.890625 26.703125 39.890625 
Q 22.75 39.890625 18.8125 39.015625 
Q 14.890625 38.140625 10.796875 36.28125 
z
" id="DejaVuSans-53"/>
     </defs>
     <g transform="translate(388.361979 259.885938)scale(0.1 -0.1)">
      <use xlink:href="#DejaVuSans-78"/>
      <use x="74.804688" xlink:href="#DejaVuSans-32"/>
      <use x="106.591797" xlink:href="#DejaVuSans-61"/>
      <use x="190.380859" xlink:href="#DejaVuSans-32"/>
      <use x="222.167969" xlink:href="#DejaVuSans-53"/>
      <use x="285.791016" xlink:href="#DejaVuSans-48"/>
     </g>
    </g>
    <g id="line2d_22">
     <path d="M 360.361979 271.064062 
L 380.361979 271.064062 
" style="fill:none;stroke:#2ca02c;stroke-linecap:square;stroke-width:1.5;"/>
    </g>
    <g id="line2d_23"/>
    <g id="text_17">
     <!-- N = 100 -->
     <g transform="translate(388.361979 274.564062)scale(0.1 -0.1)">
      <use xlink:href="#DejaVuSans-78"/>
      <use x="74.804688" xlink:href="#DejaVuSans-32"/>
      <use x="106.591797" xlink:href="#DejaVuSans-61"/>
      <use x="190.380859" xlink:href="#DejaVuSans-32"/>
      <use x="222.167969" xlink:href="#DejaVuSans-49"/>
      <use x="285.791016" xlink:href="#DejaVuSans-48"/>
      <use x="349.414062" xlink:href="#DejaVuSans-48"/>
     </g>
    </g>
    <g id="line2d_24">
     <path d="M 360.361979 285.742188 
L 380.361979 285.742188 
" style="fill:none;stroke:#d62728;stroke-linecap:square;stroke-width:1.5;"/>
    </g>
    <g id="line2d_25"/>
    <g id="text_18">
     <!-- N = 200 -->
     <g transform="translate(388.361979 289.242188)scale(0.1 -0.1)">
      <use xlink:href="#DejaVuSans-78"/>
      <use x="74.804688" xlink:href="#DejaVuSans-32"/>
      <use x="106.591797" xlink:href="#DejaVuSans-61"/>
      <use x="190.380859" xlink:href="#DejaVuSans-32"/>
      <use x="222.167969" xlink:href="#DejaVuSans-50"/>
      <use x="285.791016" xlink:href="#DejaVuSans-48"/>
      <use x="349.414062" xlink:href="#DejaVuSans-48"/>
     </g>
    </g>
    <g id="line2d_26">
     <path d="M 360.361979 300.420313 
L 380.361979 300.420313 
" style="fill:none;stroke:#9467bd;stroke-linecap:square;stroke-width:1.5;"/>
    </g>
    <g id="line2d_27"/>
    <g id="text_19">
     <!-- N = 500 -->
     <g transform="translate(388.361979 303.920313)scale(0.1 -0.1)">
      <use xlink:href="#DejaVuSans-78"/>
      <use x="74.804688" xlink:href="#DejaVuSans-32"/>
      <use x="106.591797" xlink:href="#DejaVuSans-61"/>
      <use x="190.380859" xlink:href="#DejaVuSans-32"/>
      <use x="222.167969" xlink:href="#DejaVuSans-53"/>
      <use x="285.791016" xlink:href="#DejaVuSans-48"/>
      <use x="349.414062" xlink:href="#DejaVuSans-48"/>
     </g>
    </g>
   </g>
  </g>
  <g id="axes_2">
   <g id="patch_8">
    <path d="M 446.933333 315 
L 777.6 315 
L 777.6 43.2 
L 446.933333 43.2 
z
" style="fill:#ffffff;"/>
   </g>
   <g id="matplotlib.axis_3">
    <g id="xtick_7">
     <g id="line2d_28">
      <g>
       <use style="stroke:#000000;stroke-width:0.8;" x="461.963636" xlink:href="#m35b8a67403" y="315"/>
      </g>
     </g>
     <g id="text_20">
      <!-- 0.0 -->
      <g transform="translate(454.012074 329.598437)scale(0.1 -0.1)">
       <use xlink:href="#DejaVuSans-48"/>
       <use x="63.623047" xlink:href="#DejaVuSans-46"/>
       <use x="95.410156" xlink:href="#DejaVuSans-48"/>
      </g>
     </g>
    </g>
    <g id="xtick_8">
     <g id="line2d_29">
      <g>
       <use style="stroke:#000000;stroke-width:0.8;" x="522.084848" xlink:href="#m35b8a67403" y="315"/>
      </g>
     </g>
     <g id="text_21">
      <!-- 0.2 -->
      <g transform="translate(514.133286 329.598437)scale(0.1 -0.1)">
       <use xlink:href="#DejaVuSans-48"/>
       <use x="63.623047" xlink:href="#DejaVuSans-46"/>
       <use x="95.410156" xlink:href="#DejaVuSans-50"/>
      </g>
     </g>
    </g>
    <g id="xtick_9">
     <g id="line2d_30">
      <g>
       <use style="stroke:#000000;stroke-width:0.8;" x="582.206061" xlink:href="#m35b8a67403" y="315"/>
      </g>
     </g>
     <g id="text_22">
      <!-- 0.4 -->
      <g transform="translate(574.254498 329.598437)scale(0.1 -0.1)">
       <use xlink:href="#DejaVuSans-48"/>
       <use x="63.623047" xlink:href="#DejaVuSans-46"/>
       <use x="95.410156" xlink:href="#DejaVuSans-52"/>
      </g>
     </g>
    </g>
    <g id="xtick_10">
     <g id="line2d_31">
      <g>
       <use style="stroke:#000000;stroke-width:0.8;" x="642.327273" xlink:href="#m35b8a67403" y="315"/>
      </g>
     </g>
     <g id="text_23">
      <!-- 0.6 -->
      <g transform="translate(634.37571 329.598437)scale(0.1 -0.1)">
       <use xlink:href="#DejaVuSans-48"/>
       <use x="63.623047" xlink:href="#DejaVuSans-46"/>
       <use x="95.410156" xlink:href="#DejaVuSans-54"/>
      </g>
     </g>
    </g>
    <g id="xtick_11">
     <g id="line2d_32">
      <g>
       <use style="stroke:#000000;stroke-width:0.8;" x="702.448485" xlink:href="#m35b8a67403" y="315"/>
      </g>
     </g>
     <g id="text_24">
      <!-- 0.8 -->
      <g transform="translate(694.496922 329.598437)scale(0.1 -0.1)">
       <use xlink:href="#DejaVuSans-48"/>
       <use x="63.623047" xlink:href="#DejaVuSans-46"/>
       <use x="95.410156" xlink:href="#DejaVuSans-56"/>
      </g>
     </g>
    </g>
    <g id="xtick_12">
     <g id="line2d_33">
      <g>
       <use style="stroke:#000000;stroke-width:0.8;" x="762.569697" xlink:href="#m35b8a67403" y="315"/>
      </g>
     </g>
     <g id="text_25">
      <!-- 1.0 -->
      <g transform="translate(754.618134 329.598437)scale(0.1 -0.1)">
       <use xlink:href="#DejaVuSans-49"/>
       <use x="63.623047" xlink:href="#DejaVuSans-46"/>
       <use x="95.410156" xlink:href="#DejaVuSans-48"/>
      </g>
     </g>
    </g>
    <g id="text_26">
     <!-- Density of fibers -->
     <g transform="translate(571.20026 343.276563)scale(0.1 -0.1)">
      <use xlink:href="#DejaVuSans-68"/>
      <use x="77.001953" xlink:href="#DejaVuSans-101"/>
      <use x="138.525391" xlink:href="#DejaVuSans-110"/>
      <use x="201.904297" xlink:href="#DejaVuSans-115"/>
      <use x="254.003906" xlink:href="#DejaVuSans-105"/>
      <use x="281.787109" xlink:href="#DejaVuSans-116"/>
      <use x="320.996094" xlink:href="#DejaVuSans-121"/>
      <use x="380.175781" xlink:href="#DejaVuSans-32"/>
      <use x="411.962891" xlink:href="#DejaVuSans-111"/>
      <use x="473.144531" xlink:href="#DejaVuSans-102"/>
      <use x="508.349609" xlink:href="#DejaVuSans-32"/>
      <use x="540.136719" xlink:href="#DejaVuSans-102"/>
      <use x="575.341797" xlink:href="#DejaVuSans-105"/>
      <use x="603.125" xlink:href="#DejaVuSans-98"/>
      <use x="666.601562" xlink:href="#DejaVuSans-101"/>
      <use x="728.125" xlink:href="#DejaVuSans-114"/>
      <use x="769.238281" xlink:href="#DejaVuSans-115"/>
     </g>
    </g>
   </g>
   <g id="matplotlib.axis_4">
    <g id="ytick_7">
     <g id="line2d_34">
      <g>
       <use style="stroke:#000000;stroke-width:0.8;" x="446.933333" xlink:href="#m0ef1cbce6e" y="302.645455"/>
      </g>
     </g>
    </g>
    <g id="ytick_8">
     <g id="line2d_35">
      <g>
       <use style="stroke:#000000;stroke-width:0.8;" x="446.933333" xlink:href="#m0ef1cbce6e" y="253.227273"/>
      </g>
     </g>
    </g>
    <g id="ytick_9">
     <g id="line2d_36">
      <g>
       <use style="stroke:#000000;stroke-width:0.8;" x="446.933333" xlink:href="#m0ef1cbce6e" y="203.809091"/>
      </g>
     </g>
    </g>
    <g id="ytick_10">
     <g id="line2d_37">
      <g>
       <use style="stroke:#000000;stroke-width:0.8;" x="446.933333" xlink:href="#m0ef1cbce6e" y="154.390909"/>
      </g>
     </g>
    </g>
    <g id="ytick_11">
     <g id="line2d_38">
      <g>
       <use style="stroke:#000000;stroke-width:0.8;" x="446.933333" xlink:href="#m0ef1cbce6e" y="104.972727"/>
      </g>
     </g>
    </g>
    <g id="ytick_12">
     <g id="line2d_39">
      <g>
       <use style="stroke:#000000;stroke-width:0.8;" x="446.933333" xlink:href="#m0ef1cbce6e" y="55.554545"/>
      </g>
     </g>
    </g>
   </g>
   <g id="line2d_40">
    <path clip-path="url(#p67f7aab999)" d="M 461.963636 302.645455 
L 467.975758 302.645455 
L 473.987879 302.645455 
L 480 302.645455 
L 486.012121 302.645455 
L 492.024242 302.645455 
L 498.036364 290.290909 
L 504.048485 290.290909 
L 510.060606 302.645455 
L 516.072727 277.936364 
L 522.084848 228.518182 
L 528.09697 92.618182 
L 534.109091 80.263636 
L 540.121212 67.909091 
L 546.133333 67.909091 
L 552.145455 67.909091 
L 558.157576 55.554545 
L 564.169697 55.554545 
L 570.181818 55.554545 
L 576.193939 55.554545 
L 582.206061 55.554545 
L 588.218182 55.554545 
L 594.230303 55.554545 
L 600.242424 55.554545 
L 606.254545 55.554545 
L 612.266667 55.554545 
L 618.278788 55.554545 
L 624.290909 55.554545 
L 630.30303 55.554545 
L 636.315152 55.554545 
L 642.327273 55.554545 
L 648.339394 55.554545 
L 654.351515 55.554545 
L 660.363636 55.554545 
L 666.375758 55.554545 
L 672.387879 55.554545 
L 678.4 55.554545 
L 684.412121 55.554545 
L 690.424242 55.554545 
L 696.436364 55.554545 
L 702.448485 55.554545 
L 708.460606 55.554545 
L 714.472727 55.554545 
L 720.484848 55.554545 
L 726.49697 55.554545 
L 732.509091 55.554545 
L 738.521212 55.554545 
L 744.533333 55.554545 
L 750.545455 55.554545 
L 756.557576 55.554545 
L 762.569697 55.554545 
" style="fill:none;stroke:#1f77b4;stroke-linecap:square;stroke-width:1.5;"/>
   </g>
   <g id="line2d_41">
    <path clip-path="url(#p67f7aab999)" d="M 461.963636 302.645455 
L 467.975758 302.645455 
L 473.987879 302.645455 
L 480 302.645455 
L 486.012121 302.645455 
L 492.024242 302.645455 
L 498.036364 289.055455 
L 504.048485 300.174545 
L 510.060606 291.526364 
L 516.072727 292.761818 
L 522.084848 245.814545 
L 528.09697 109.914545 
L 534.109091 69.144545 
L 540.121212 59.260909 
L 546.133333 59.260909 
L 552.145455 62.967273 
L 558.157576 62.967273 
L 564.169697 55.554545 
L 570.181818 55.554545 
L 576.193939 55.554545 
L 582.206061 55.554545 
L 588.218182 55.554545 
L 594.230303 55.554545 
L 600.242424 55.554545 
L 606.254545 55.554545 
L 612.266667 55.554545 
L 618.278788 55.554545 
L 624.290909 55.554545 
L 630.30303 55.554545 
L 636.315152 55.554545 
L 642.327273 55.554545 
L 648.339394 55.554545 
L 654.351515 55.554545 
L 660.363636 55.554545 
L 666.375758 55.554545 
L 672.387879 55.554545 
L 678.4 55.554545 
L 684.412121 55.554545 
L 690.424242 55.554545 
L 696.436364 55.554545 
L 702.448485 55.554545 
L 708.460606 55.554545 
L 714.472727 55.554545 
L 720.484848 55.554545 
L 726.49697 55.554545 
L 732.509091 55.554545 
L 738.521212 55.554545 
L 744.533333 55.554545 
L 750.545455 55.554545 
L 756.557576 55.554545 
L 762.569697 55.554545 
" style="fill:none;stroke:#ff7f0e;stroke-linecap:square;stroke-width:1.5;"/>
   </g>
   <g id="line2d_42">
    <path clip-path="url(#p67f7aab999)" d="M 461.963636 302.645455 
L 467.975758 302.645455 
L 473.987879 302.645455 
L 480 302.645455 
L 486.012121 302.645455 
L 492.024242 302.645455 
L 498.036364 302.645455 
L 504.048485 296.221091 
L 510.060606 300.668727 
L 516.072727 295.109182 
L 522.084848 283.372364 
L 528.09697 99.413182 
L 534.109091 73.221545 
L 540.121212 76.804364 
L 546.133333 71.244818 
L 552.145455 63.090818 
L 558.157576 59.508 
L 564.169697 55.554545 
L 570.181818 59.384455 
L 576.193939 55.554545 
L 582.206061 63.708545 
L 588.218182 55.554545 
L 594.230303 55.554545 
L 600.242424 55.554545 
L 606.254545 55.554545 
L 612.266667 55.554545 
L 618.278788 55.554545 
L 624.290909 55.554545 
L 630.30303 55.554545 
L 636.315152 55.554545 
L 642.327273 55.554545 
L 648.339394 55.554545 
L 654.351515 55.554545 
L 660.363636 55.554545 
L 666.375758 55.554545 
L 672.387879 55.554545 
L 678.4 55.554545 
L 684.412121 55.554545 
L 690.424242 55.554545 
L 696.436364 55.554545 
L 702.448485 55.554545 
L 708.460606 55.554545 
L 714.472727 55.554545 
L 720.484848 55.554545 
L 726.49697 55.554545 
L 732.509091 55.554545 
L 738.521212 55.554545 
L 744.533333 55.554545 
L 750.545455 55.554545 
L 756.557576 55.554545 
L 762.569697 55.554545 
" style="fill:none;stroke:#2ca02c;stroke-linecap:square;stroke-width:1.5;"/>
   </g>
   <g id="line2d_43">
    <path clip-path="url(#p67f7aab999)" d="M 461.963636 302.645455 
L 467.975758 302.645455 
L 473.987879 302.645455 
L 480 302.645455 
L 486.012121 302.645455 
L 492.024242 302.645455 
L 498.036364 300.705791 
L 504.048485 301.632382 
L 510.060606 292.761818 
L 516.072727 289.944982 
L 522.084848 253.412591 
L 528.09697 114.473373 
L 534.109091 79.460591 
L 540.121212 62.0901 
L 546.133333 55.554545 
L 552.145455 57.506564 
L 558.157576 55.554545 
L 564.169697 55.554545 
L 570.181818 55.554545 
L 576.193939 55.554545 
L 582.206061 55.554545 
L 588.218182 55.554545 
L 594.230303 55.554545 
L 600.242424 55.554545 
L 606.254545 55.554545 
L 612.266667 55.554545 
L 618.278788 55.554545 
L 624.290909 55.554545 
L 630.30303 55.554545 
L 636.315152 55.554545 
L 642.327273 55.554545 
L 648.339394 55.554545 
L 654.351515 55.554545 
L 660.363636 55.554545 
L 666.375758 55.554545 
L 672.387879 55.554545 
L 678.4 55.554545 
L 684.412121 55.554545 
L 690.424242 55.554545 
L 696.436364 55.554545 
L 702.448485 55.554545 
L 708.460606 55.554545 
L 714.472727 55.554545 
L 720.484848 55.554545 
L 726.49697 55.554545 
L 732.509091 55.554545 
L 738.521212 55.554545 
L 744.533333 55.554545 
L 750.545455 55.554545 
L 756.557576 55.554545 
L 762.569697 55.554545 
" style="fill:none;stroke:#d62728;stroke-linecap:square;stroke-width:1.5;"/>
   </g>
   <g id="line2d_44">
    <path clip-path="url(#p67f7aab999)" d="M 461.963636 302.645455 
L 467.975758 302.645455 
L 473.987879 302.645455 
L 480 302.645455 
L 486.012121 301.311164 
L 492.024242 300.520473 
L 498.036364 302.645455 
L 504.048485 302.645455 
L 510.060606 300.038645 
L 516.072727 289.895564 
L 522.084848 253.5732 
L 528.09697 116.919573 
L 534.109091 70.182327 
L 540.121212 65.944718 
L 546.133333 62.608991 
L 552.145455 57.6054 
L 558.157576 68.366209 
L 564.169697 55.554545 
L 570.181818 55.554545 
L 576.193939 57.135927 
L 582.206061 55.554545 
L 588.218182 55.554545 
L 594.230303 55.554545 
L 600.242424 55.554545 
L 606.254545 55.554545 
L 612.266667 55.554545 
L 618.278788 55.554545 
L 624.290909 55.554545 
L 630.30303 55.554545 
L 636.315152 55.554545 
L 642.327273 55.554545 
L 648.339394 55.554545 
L 654.351515 55.554545 
L 660.363636 55.554545 
L 666.375758 55.554545 
L 672.387879 55.554545 
L 678.4 55.554545 
L 684.412121 55.554545 
L 690.424242 55.554545 
L 696.436364 55.554545 
L 702.448485 55.554545 
L 708.460606 55.554545 
L 714.472727 55.554545 
L 720.484848 55.554545 
L 726.49697 55.554545 
L 732.509091 55.554545 
L 738.521212 55.554545 
L 744.533333 55.554545 
L 750.545455 55.554545 
L 756.557576 55.554545 
L 762.569697 55.554545 
" style="fill:none;stroke:#9467bd;stroke-linecap:square;stroke-width:1.5;"/>
   </g>
   <g id="patch_9">
    <path d="M 446.933333 315 
L 446.933333 43.2 
" style="fill:none;stroke:#000000;stroke-linecap:square;stroke-linejoin:miter;stroke-width:0.8;"/>
   </g>
   <g id="patch_10">
    <path d="M 777.6 315 
L 777.6 43.2 
" style="fill:none;stroke:#000000;stroke-linecap:square;stroke-linejoin:miter;stroke-width:0.8;"/>
   </g>
   <g id="patch_11">
    <path d="M 446.933333 315 
L 777.6 315 
" style="fill:none;stroke:#000000;stroke-linecap:square;stroke-linejoin:miter;stroke-width:0.8;"/>
   </g>
   <g id="patch_12">
    <path d="M 446.933333 43.2 
L 777.6 43.2 
" style="fill:none;stroke:#000000;stroke-linecap:square;stroke-linejoin:miter;stroke-width:0.8;"/>
   </g>
   <g id="legend_2">
    <g id="patch_13">
     <path d="M 683.423438 310 
L 770.6 310 
Q 772.6 310 772.6 308 
L 772.6 235.609375 
Q 772.6 233.609375 770.6 233.609375 
L 683.423438 233.609375 
Q 681.423438 233.609375 681.423438 235.609375 
L 681.423438 308 
Q 681.423438 310 683.423438 310 
z
" style="fill:#ffffff;opacity:0.8;stroke:#cccccc;stroke-linejoin:miter;"/>
    </g>
    <g id="line2d_45">
     <path d="M 685.423438 241.707812 
L 705.423438 241.707812 
" style="fill:none;stroke:#1f77b4;stroke-linecap:square;stroke-width:1.5;"/>
    </g>
    <g id="line2d_46"/>
    <g id="text_27">
     <!-- M = 1 -->
     <defs>
      <path d="M 9.8125 72.90625 
L 24.515625 72.90625 
L 43.109375 23.296875 
L 61.8125 72.90625 
L 76.515625 72.90625 
L 76.515625 0 
L 66.890625 0 
L 66.890625 64.015625 
L 48.09375 14.015625 
L 38.1875 14.015625 
L 19.390625 64.015625 
L 19.390625 0 
L 9.8125 0 
z
" id="DejaVuSans-77"/>
     </defs>
     <g transform="translate(713.423438 245.207812)scale(0.1 -0.1)">
      <use xlink:href="#DejaVuSans-77"/>
      <use x="86.279297" xlink:href="#DejaVuSans-32"/>
      <use x="118.066406" xlink:href="#DejaVuSans-61"/>
      <use x="201.855469" xlink:href="#DejaVuSans-32"/>
      <use x="233.642578" xlink:href="#DejaVuSans-49"/>
     </g>
    </g>
    <g id="line2d_47">
     <path d="M 685.423438 256.385938 
L 705.423438 256.385938 
" style="fill:none;stroke:#ff7f0e;stroke-linecap:square;stroke-width:1.5;"/>
    </g>
    <g id="line2d_48"/>
    <g id="text_28">
     <!-- M = 10 -->
     <g transform="translate(713.423438 259.885938)scale(0.1 -0.1)">
      <use xlink:href="#DejaVuSans-77"/>
      <use x="86.279297" xlink:href="#DejaVuSans-32"/>
      <use x="118.066406" xlink:href="#DejaVuSans-61"/>
      <use x="201.855469" xlink:href="#DejaVuSans-32"/>
      <use x="233.642578" xlink:href="#DejaVuSans-49"/>
      <use x="297.265625" xlink:href="#DejaVuSans-48"/>
     </g>
    </g>
    <g id="line2d_49">
     <path d="M 685.423438 271.064062 
L 705.423438 271.064062 
" style="fill:none;stroke:#2ca02c;stroke-linecap:square;stroke-width:1.5;"/>
    </g>
    <g id="line2d_50"/>
    <g id="text_29">
     <!-- M = 100 -->
     <g transform="translate(713.423438 274.564062)scale(0.1 -0.1)">
      <use xlink:href="#DejaVuSans-77"/>
      <use x="86.279297" xlink:href="#DejaVuSans-32"/>
      <use x="118.066406" xlink:href="#DejaVuSans-61"/>
      <use x="201.855469" xlink:href="#DejaVuSans-32"/>
      <use x="233.642578" xlink:href="#DejaVuSans-49"/>
      <use x="297.265625" xlink:href="#DejaVuSans-48"/>
      <use x="360.888672" xlink:href="#DejaVuSans-48"/>
     </g>
    </g>
    <g id="line2d_51">
     <path d="M 685.423438 285.742188 
L 705.423438 285.742188 
" style="fill:none;stroke:#d62728;stroke-linecap:square;stroke-width:1.5;"/>
    </g>
    <g id="line2d_52"/>
    <g id="text_30">
     <!-- M = 1000 -->
     <g transform="translate(713.423438 289.242188)scale(0.1 -0.1)">
      <use xlink:href="#DejaVuSans-77"/>
      <use x="86.279297" xlink:href="#DejaVuSans-32"/>
      <use x="118.066406" xlink:href="#DejaVuSans-61"/>
      <use x="201.855469" xlink:href="#DejaVuSans-32"/>
      <use x="233.642578" xlink:href="#DejaVuSans-49"/>
      <use x="297.265625" xlink:href="#DejaVuSans-48"/>
      <use x="360.888672" xlink:href="#DejaVuSans-48"/>
      <use x="424.511719" xlink:href="#DejaVuSans-48"/>
     </g>
    </g>
    <g id="line2d_53">
     <path d="M 685.423438 300.420313 
L 705.423438 300.420313 
" style="fill:none;stroke:#9467bd;stroke-linecap:square;stroke-width:1.5;"/>
    </g>
    <g id="line2d_54"/>
    <g id="text_31">
     <!-- M = 10000 -->
     <g transform="translate(713.423438 303.920313)scale(0.1 -0.1)">
      <use xlink:href="#DejaVuSans-77"/>
      <use x="86.279297" xlink:href="#DejaVuSans-32"/>
      <use x="118.066406" xlink:href="#DejaVuSans-61"/>
      <use x="201.855469" xlink:href="#DejaVuSans-32"/>
      <use x="233.642578" xlink:href="#DejaVuSans-49"/>
      <use x="297.265625" xlink:href="#DejaVuSans-48"/>
      <use x="360.888672" xlink:href="#DejaVuSans-48"/>
      <use x="424.511719" xlink:href="#DejaVuSans-48"/>
      <use x="488.134766" xlink:href="#DejaVuSans-48"/>
     </g>
    </g>
   </g>
  </g>
 </g>
 <defs>
  <clipPath id="p43dbb1a6ee">
   <rect height="271.8" width="330.666667" x="108" y="43.2"/>
  </clipPath>
  <clipPath id="p67f7aab999">
   <rect height="271.8" width="330.666667" x="446.933333" y="43.2"/>
  </clipPath>
 </defs>
</svg>
